<?xml version="1.0" encoding="UTF-8"?>
<svg width="39px" height="26px" viewBox="0 0 39 26" version="1.1" xmlns="http://www.w3.org/2000/svg" xmlns:xlink="http://www.w3.org/1999/xlink">
    <!-- Generator: Sketch 45.2 (43514) - http://www.bohemiancoding.com/sketch -->
    <title>quiz-footer-logo_white 2</title>
    <desc>Created with Sketch.</desc>
    <defs></defs>
    <g id="Page-1" stroke="none" stroke-width="1" fill="none" fill-rule="evenodd">
        <g id="quiz-footer-logo_white">
            <rect id="Rectangle-3" x="0" y="0" width="39" height="26"></rect>
            <path d="M33.773685,20.538701 C33.441857,20.538701 33.139591,20.410356 32.911882,20.205839 C32.989289,19.534385 33.041289,18.854931 33.049481,18.164613 C33.257363,18.025045 33.506442,17.940038 33.773685,17.940038 C34.483643,17.940038 35.064787,18.52374 35.064787,19.242116 C35.064787,19.963237 34.483643,20.538701 33.773685,20.538701 M5.293819,20.538701 C4.583743,20.538701 4.002598,19.963237 4.002598,19.242116 C4.002598,18.52374 4.583743,17.940038 5.293819,17.940038 C5.560943,17.940038 5.810141,18.025045 6.017904,18.164613 C6.026096,18.854931 6.078215,19.534385 6.155622,20.205839 C5.927913,20.410356 5.625647,20.538701 5.293819,20.538701 M33.689392,14.837068 C33.326103,14.837068 32.976585,14.886257 32.641908,14.968279 C31.355436,9.850348 27.174878,5.890032 21.952772,4.95341 C21.720077,4.911026 21.509345,4.879985 21.272495,4.850017 C21.311555,3.567878 21.371153,2.085879 23.246842,0.752163 L22.950037,0 C22.950037,0 19.294943,1.142332 18.871342,4.287806 C18.689104,3.431892 16.984494,2.361194 16.140618,2.157991 L15.720935,2.838639 C15.720935,2.838639 16.839534,3.401447 17.112239,4.953888 L17.111882,4.953888 L17.112239,4.953888 C11.891201,5.891345 7.71183,9.851184 6.425477,14.968279 C6.0908,14.886257 5.741401,14.837068 5.378111,14.837068 C2.96473,14.837068 1,16.808212 1,19.242713 C1,21.671482 2.96473,23.646327 5.378111,23.646327 C5.943466,23.646327 6.482226,23.533025 6.977772,23.338299 C7.355426,24.281965 7.831977,25.177038 8.400418,26 L12.034498,23.53601 L12.003631,23.495298 C11.04222,22.252916 10.454546,20.424205 10.355888,18.603852 C10.246782,16.595816 10.734136,14.601271 12.008736,13.428972 C14.638072,11.178811 17.49951,12.204379 19.292687,14.361534 L19.774698,14.361534 C21.567994,12.204379 24.429313,11.178811 27.05865,13.428972 C28.333249,14.601271 28.820603,16.595816 28.711616,18.603852 C28.612958,20.424205 28.025284,22.252916 27.063873,23.495298 L27.032887,23.53601 L30.667086,26 C31.235527,25.177038 31.712077,24.281965 32.089732,23.338299 C32.585278,23.533025 33.124038,23.646327 33.689392,23.646327 C36.102655,23.646327 38.067385,21.671482 38.067385,19.242713 C38.067385,16.808212 36.102655,14.837068 33.689392,14.837068" id="Fill-81-Copy" fill="#FFFFFF" fill-rule="nonzero"></path>
        </g>
    </g>
</svg>